<svg width="24" height="24" viewBox="0 0 24 24" fill="none" xmlns="http://www.w3.org/2000/svg">
<circle cx="12" cy="12" r="12" fill="#4877EF"/>
<g clip-path="url(#clip0_1335_91027)">
<g opacity="0.7">
<path d="M18.3641 11.9298C18.3641 11.9696 18.3525 12.0086 18.3306 12.0419C18.3088 12.0752 18.2776 12.1014 18.2411 12.1172L5.98862 17.4266C5.9492 17.4437 5.90538 17.448 5.86342 17.4387C5.82145 17.4295 5.78347 17.4072 5.75488 17.3751C5.72629 17.3431 5.70855 17.3028 5.70418 17.26C5.69982 17.2173 5.70905 17.1743 5.73056 17.1371L8.13817 12.963C8.16135 12.9229 8.1975 12.8918 8.24068 12.8749L10.6565 11.9298L8.2407 10.9847C8.19752 10.9678 8.16137 10.9367 8.13819 10.8965L5.73056 6.72246C5.70905 6.68526 5.69982 6.64222 5.70418 6.59947C5.70855 6.55672 5.72629 6.51644 5.75488 6.48436C5.78347 6.45228 5.82145 6.43003 5.86342 6.42079C5.90538 6.41155 5.9492 6.41579 5.98862 6.43289L18.2411 11.7423C18.2776 11.7581 18.3088 11.7843 18.3306 11.8176C18.3525 11.851 18.3641 11.8899 18.3641 11.9298Z" fill="#EFEFEF"/>
</g>
</g>
<defs>
<clipPath id="clip0_1335_91027">
<rect width="13.0693" height="13.0693" fill="white" transform="translate(5.46533 5.46533)"/>
</clipPath>
</defs>
</svg>
