<svg width="20" height="20" viewBox="0 0 20 20" fill="none" xmlns="http://www.w3.org/2000/svg">
<path d="M10 19C7.59602 19 5.33593 18.0638 3.63602 16.364C1.93618 14.6641 1 12.404 1 10C1 7.59602 1.93618 5.33593 3.63602 3.63602C5.33593 1.93618 7.59602 1 10 1C12.404 1 14.6641 1.93618 16.364 3.63602C18.0638 5.33593 19 7.59602 19 10C19 12.404 18.0638 14.6641 16.364 16.364C14.6641 18.0638 12.404 19 10 19ZM10 2.40625C5.81279 2.40625 2.40625 5.81279 2.40625 10C2.40625 14.1872 5.81279 17.5938 10 17.5938C14.1872 17.5938 17.5938 14.1872 17.5938 10C17.5938 5.81279 14.1872 2.40625 10 2.40625ZM13.2954 11.5535C12.9678 11.345 12.5332 11.4415 12.3248 11.7692C12.3161 11.7828 11.4411 13.1311 9.96484 13.1311C8.48863 13.1311 7.61359 11.7828 7.60491 11.7692C7.39643 11.4416 6.96187 11.345 6.63425 11.5535C6.30662 11.762 6.21005 12.1966 6.41853 12.5241C6.47084 12.6063 7.72536 14.5373 9.96484 14.5373C12.2043 14.5373 13.4588 12.6064 13.5112 12.5241C13.7196 12.1965 13.6231 11.762 13.2954 11.5535ZM6.90625 6.80078C7.39165 6.80078 7.78516 7.19428 7.78516 7.67969C7.78516 8.16509 7.39165 8.55859 6.90625 8.55859C6.42085 8.55859 6.02734 8.16509 6.02734 7.67969C6.02734 7.19428 6.42085 6.80078 6.90625 6.80078ZM12.1797 7.67969C12.1797 8.16509 12.5732 8.55859 13.0586 8.55859C13.544 8.55859 13.9375 8.16509 13.9375 7.67969C13.9375 7.19428 13.544 6.80078 13.0586 6.80078C12.5732 6.80078 12.1797 7.19428 12.1797 7.67969Z" fill="#959595"/>
</svg>
