<svg width="20" height="20" viewBox="0 0 20 20" fill="none" xmlns="http://www.w3.org/2000/svg">
<path fill-rule="evenodd" clip-rule="evenodd" d="M12.1875 6.25H17.5V19.0625C17.5 19.582 17.082 20 16.5625 20H3.4375C2.91797 20 2.5 19.582 2.5 19.0625V0.9375C2.5 0.417969 2.91797 0 3.4375 0H11.25V5.3125C11.25 5.82812 11.6719 6.25 12.1875 6.25ZM9.60547 10.0039C9.41016 9.37891 9.41406 8.17188 9.52734 8.17188C9.85547 8.17188 9.82422 9.61328 9.60547 10.0039ZM9.53906 11.8477C9.23828 12.6367 8.86328 13.5391 8.42969 14.2969C8.60472 14.2299 8.78538 14.1555 8.97211 14.0785C9.548 13.8412 10.1817 13.58 10.8867 13.4414C10.3906 13.0664 9.91406 12.5273 9.53906 11.8477ZM7.22656 15.1523C6.37891 16.5117 5.86328 16.7539 5.86328 16.7227C6.0565 16.1996 6.72131 15.6056 7.07516 15.2894C7.13623 15.2349 7.18804 15.1886 7.22656 15.1523ZM10.207 10.8594C10.5742 11.8281 11.0938 12.4844 11.875 12.9609C12.6289 12.8633 14.207 12.7109 14.75 13.2422C15.1992 13.6875 15.1211 14.9375 13.9805 14.9375C13.3203 14.9375 12.3281 14.6367 11.4805 14.1758C10.6925 14.3055 9.81729 14.6019 8.97749 14.8864L8.97715 14.8865L8.97645 14.8867C8.78002 14.9532 8.58552 15.0191 8.39453 15.082C7.40234 16.793 6.70703 17.4961 6.00781 17.4961C5.79297 17.4961 5.38672 17.375 5.16797 17.1055C4.42187 16.1875 6.23828 14.9922 7.29688 14.4492C7.29883 14.4492 7.2998 14.4482 7.30078 14.4473C7.30176 14.4463 7.30273 14.4453 7.30469 14.4453C7.77734 13.6172 8.44531 12.1719 8.89844 11.0938C8.56641 9.80859 8.38672 8.80078 8.58203 8.08594C8.79297 7.31641 10.2656 7.20313 10.4492 8.35156C10.6548 9.02145 10.3967 10.0807 10.2207 10.8031L10.207 10.8594ZM17.2266 4.10156L13.3984 0.273438C13.2227 0.0976562 12.9844 0 12.7344 0H12.5V5H17.5V4.76172C17.5 4.51562 17.4023 4.27734 17.2266 4.10156ZM14.332 14.0742C14.4922 13.9688 14.2344 13.6094 12.6602 13.7227C14.1094 14.3398 14.332 14.0742 14.332 14.0742Z" fill="#BE3A31"/>
</svg>
