<svg width="20" height="20" viewBox="0 0 20 20" fill="none" xmlns="http://www.w3.org/2000/svg">
<path fill-rule="evenodd" clip-rule="evenodd" d="M11.25 5.3125V0H3.4375C2.91797 0 2.5 0.417969 2.5 0.9375V19.0625C2.5 19.582 2.91797 20 3.4375 20H16.5625C17.082 20 17.5 19.582 17.5 19.0625V6.25H12.1875C11.6719 6.25 11.25 5.82812 11.25 5.3125ZM13.4805 10H14.4141C14.7148 10 14.9375 10.2773 14.8711 10.5742L13.3867 17.1367C13.3398 17.3516 13.1484 17.5 12.9297 17.5H11.4453C11.2305 17.5 11.043 17.3516 10.9922 17.1445C10.8028 16.3849 10.656 15.7988 10.541 15.3402C10.221 14.0631 10.1487 13.7746 10.0971 13.4826C10.082 13.3974 10.0687 13.3118 10.0515 13.2014C10.0362 13.1027 10.0177 12.9841 9.99219 12.8281H9.97266C9.93718 13.2893 9.89638 13.4523 9.37317 15.5419L9.37316 15.542L9.37315 15.542C9.26266 15.9833 9.13066 16.5105 8.97266 17.1445C8.92188 17.3516 8.73438 17.5 8.51953 17.5H7.07031C6.85156 17.5 6.66016 17.3477 6.61328 17.1328L5.13672 10.5703C5.07031 10.2773 5.29297 10 5.59375 10H6.55078C6.77344 10 6.96875 10.1562 7.01172 10.3789C7.62109 13.4258 7.79688 14.6562 7.83203 15.1523C7.88481 14.8159 8.05179 14.1368 8.6223 11.8167L8.62232 11.8166C8.72741 11.3893 8.84619 10.9062 8.98047 10.3594C9.03125 10.1484 9.21875 10.0039 9.4375 10.0039H10.5742C10.793 10.0039 10.9805 10.1523 11.0312 10.3633C11.9688 14.2852 12.1563 15.207 12.1875 15.418C12.1869 15.3862 12.1859 15.3554 12.1849 15.3239C12.1716 14.9215 12.1545 14.4069 13.0313 10.3711C13.0703 10.1523 13.2617 10 13.4805 10ZM17.5 5V4.76172C17.5 4.51562 17.4023 4.27734 17.2266 4.10156L13.4023 0.273438C13.2266 0.0976562 12.9883 0 12.7383 0H12.5V5H17.5Z" fill="#007AFF"/>
</svg>
