<svg width="49" height="48" viewBox="0 0 49 48" fill="none" xmlns="http://www.w3.org/2000/svg">
<path d="M46.0644 40.4263L25.9277 5.57429C25.6276 5.05635 25.1096 4.7998 24.5868 4.7998C24.0641 4.7998 23.5413 5.05635 23.246 5.57429L3.10927 40.4263C2.51388 41.4622 3.25933 42.7498 4.45011 42.7498H44.7236C45.9143 42.7498 46.6598 41.4622 46.0644 40.4263ZM23.0379 19.1279C23.0379 18.9149 23.2121 18.7406 23.4251 18.7406H25.7486C25.9616 18.7406 26.1358 18.9149 26.1358 19.1279V28.0345C26.1358 28.2475 25.9616 28.4217 25.7486 28.4217H23.4251C23.2121 28.4217 23.0379 28.2475 23.0379 28.0345V19.1279ZM24.5868 36.1666C23.9788 36.1542 23.3999 35.904 22.9743 35.4696C22.5487 35.0352 22.3103 34.4513 22.3103 33.8432C22.3103 33.235 22.5487 32.6511 22.9743 32.2167C23.3999 31.7824 23.9788 31.5321 24.5868 31.5197C25.1948 31.5321 25.7738 31.7824 26.1994 32.2167C26.625 32.6511 26.8634 33.235 26.8634 33.8432C26.8634 34.4513 26.625 35.0352 26.1994 35.4696C25.7738 35.904 25.1948 36.1542 24.5868 36.1666Z" fill="url(#paint0_linear_6277_82933)"/>
<defs>
<linearGradient id="paint0_linear_6277_82933" x1="24.5868" y1="4.7998" x2="24.5868" y2="42.7498" gradientUnits="userSpaceOnUse">
<stop stop-color="#FCA549"/>
<stop offset="1" stop-color="#F39531"/>
</linearGradient>
</defs>
</svg>
