<svg width="24" height="24" viewBox="0 0 24 24" fill="none" xmlns="http://www.w3.org/2000/svg">
<path d="M11.2901 12.0002L14.8301 8.46019C15.0163 8.27283 15.1209 8.01938 15.1209 7.75519C15.1209 7.49101 15.0163 7.23756 14.8301 7.05019C14.7371 6.95646 14.6265 6.88207 14.5046 6.8313C14.3828 6.78053 14.2521 6.75439 14.1201 6.75439C13.9881 6.75439 13.8573 6.78053 13.7355 6.8313C13.6136 6.88207 13.503 6.95646 13.4101 7.05019L9.17007 11.2902C9.07634 11.3832 9.00194 11.4938 8.95117 11.6156C8.90041 11.7375 8.87427 11.8682 8.87427 12.0002C8.87427 12.1322 8.90041 12.2629 8.95117 12.3848C9.00194 12.5066 9.07634 12.6172 9.17007 12.7102L13.4101 17.0002C13.5035 17.0929 13.6143 17.1662 13.7362 17.216C13.858 17.2657 13.9885 17.291 14.1201 17.2902C14.2517 17.291 14.3821 17.2657 14.504 17.216C14.6258 17.1662 14.7366 17.0929 14.8301 17.0002C15.0163 16.8128 15.1209 16.5594 15.1209 16.2952C15.1209 16.031 15.0163 15.7776 14.8301 15.5902L11.2901 12.0002Z" fill="#8A8A8A"/>
</svg>
