<svg width="20" height="20" viewBox="0 0 20 20" fill="none" xmlns="http://www.w3.org/2000/svg">
<path d="M14.1666 11.1749L10.5916 7.64152C10.5141 7.56341 10.4219 7.50142 10.3204 7.45911C10.2188 7.4168 10.1099 7.39502 9.99992 7.39502C9.88991 7.39502 9.78098 7.4168 9.67944 7.45911C9.57789 7.50142 9.48572 7.56341 9.40825 7.64152L5.87492 11.1749C5.79681 11.2523 5.73481 11.3445 5.69251 11.446C5.6502 11.5476 5.62842 11.6565 5.62842 11.7665C5.62842 11.8765 5.6502 11.9854 5.69251 12.087C5.73481 12.1885 5.79681 12.2807 5.87492 12.3582C6.03105 12.5134 6.24226 12.6005 6.46242 12.6005C6.68257 12.6005 6.89378 12.5134 7.04992 12.3582L9.99992 9.40818L12.9499 12.3582C13.1051 12.5121 13.3146 12.5989 13.5332 12.5999C13.6429 12.6005 13.7516 12.5795 13.8532 12.538C13.9547 12.4965 14.047 12.4354 14.1249 12.3582C14.2058 12.2835 14.2711 12.1935 14.317 12.0935C14.363 11.9934 14.3886 11.8852 14.3925 11.7752C14.3963 11.6652 14.3784 11.5555 14.3396 11.4524C14.3008 11.3494 14.242 11.255 14.1666 11.1749Z" fill="#4877EF"/>
</svg>
