<svg width="16" height="16" viewBox="0 0 16 16" fill="none" xmlns="http://www.w3.org/2000/svg">
<path d="M13.9465 4.41313C13.9147 4.3313 13.8672 4.25653 13.8065 4.19313L11.8065 2.19313C11.7443 2.13097 11.6705 2.08167 11.5893 2.04802C11.5081 2.01438 11.421 1.99707 11.3331 1.99707C11.1556 1.99707 10.9853 2.0676 10.8598 2.19313C10.7343 2.31867 10.6637 2.48893 10.6637 2.66646C10.6637 2.844 10.7343 3.01426 10.8598 3.1398L11.7265 3.9998H5.9998C5.46936 3.9998 4.96066 4.21051 4.58558 4.58558C4.21051 4.96066 3.9998 5.46936 3.9998 5.9998V11.7265L3.1398 10.8598C3.01426 10.7343 2.844 10.6637 2.66646 10.6637C2.48893 10.6637 2.31867 10.7343 2.19313 10.8598C2.0676 10.9853 1.99707 11.1556 1.99707 11.3331C1.99707 11.5107 2.0676 11.6809 2.19313 11.8065L4.19313 13.8065C4.25653 13.8672 4.3313 13.9147 4.41313 13.9465C4.49293 13.9817 4.57922 14 4.66646 14C4.75371 14 4.84 13.9817 4.9198 13.9465C5.00163 13.9147 5.0764 13.8672 5.1398 13.8065L7.1398 11.8065C7.26533 11.6809 7.33586 11.5107 7.33586 11.3331C7.33586 11.1556 7.26533 10.9853 7.1398 10.8598C7.01426 10.7343 6.844 10.6637 6.66646 10.6637C6.48893 10.6637 6.31867 10.7343 6.19313 10.8598L5.33313 11.7265V5.9998C5.33313 5.82299 5.40337 5.65342 5.52839 5.52839C5.65342 5.40337 5.82299 5.33313 5.9998 5.33313H11.7265L10.8598 6.19313C10.7973 6.25511 10.7477 6.32884 10.7139 6.41008C10.68 6.49132 10.6626 6.57846 10.6626 6.66646C10.6626 6.75447 10.68 6.84161 10.7139 6.92285C10.7477 7.00409 10.7973 7.07782 10.8598 7.1398C10.9218 7.20228 10.9955 7.25188 11.0767 7.28573C11.158 7.31957 11.2451 7.337 11.3331 7.337C11.4211 7.337 11.5083 7.31957 11.5895 7.28573C11.6708 7.25188 11.7445 7.20228 11.8065 7.1398L13.8065 5.1398C13.8672 5.0764 13.9147 5.00163 13.9465 4.9198C14.0131 4.75749 14.0131 4.57544 13.9465 4.41313Z" fill="#959595"/>
</svg>
