<svg width="20" height="20" viewBox="0 0 20 20" fill="none" xmlns="http://www.w3.org/2000/svg">
<path d="M10.0001 1.6665C8.35191 1.6665 6.74074 2.15525 5.37033 3.07092C3.99992 3.9866 2.93182 5.28809 2.30109 6.81081C1.67036 8.33353 1.50533 10.0091 1.82687 11.6256C2.14842 13.2421 2.94209 14.727 4.10753 15.8924C5.27297 17.0578 6.75782 17.8515 8.37433 18.173C9.99084 18.4946 11.6664 18.3296 13.1891 17.6988C14.7118 17.0681 16.0133 16 16.929 14.6296C17.8447 13.2592 18.3334 11.648 18.3334 9.99984C18.3334 8.90549 18.1179 7.82186 17.6991 6.81081C17.2803 5.79976 16.6665 4.8811 15.8926 4.10728C15.1188 3.33346 14.2002 2.71963 13.1891 2.30084C12.1781 1.88205 11.0944 1.6665 10.0001 1.6665ZM10.0001 16.6665C8.68154 16.6665 7.39261 16.2755 6.29628 15.543C5.19996 14.8104 4.34547 13.7692 3.84089 12.5511C3.3363 11.3329 3.20428 9.99244 3.46152 8.69924C3.71875 7.40603 4.35369 6.21814 5.28604 5.28579C6.21839 4.35344 7.40628 3.7185 8.69948 3.46127C9.99269 3.20403 11.3331 3.33606 12.5513 3.84064C13.7695 4.34522 14.8107 5.19971 15.5432 6.29604C16.2758 7.39236 16.6668 8.6813 16.6668 9.99984C16.6668 11.7679 15.9644 13.4636 14.7141 14.7139C13.4639 15.9641 11.7682 16.6665 10.0001 16.6665ZM12.5834 10.5248L10.8334 9.5165V5.83317C10.8334 5.61216 10.7456 5.4002 10.5893 5.24392C10.4331 5.08764 10.2211 4.99984 10.0001 4.99984C9.77907 4.99984 9.56711 5.08764 9.41083 5.24392C9.25455 5.4002 9.16675 5.61216 9.16675 5.83317V9.99984C9.16675 9.99984 9.16675 10.0665 9.16675 10.0998C9.17169 10.1573 9.18575 10.2135 9.20842 10.2665C9.22558 10.3159 9.24793 10.3634 9.27509 10.4082C9.29789 10.4555 9.32583 10.5003 9.35842 10.5415L9.49175 10.6498L9.56675 10.7248L11.7334 11.9748C11.8604 12.0468 12.0041 12.0842 12.1501 12.0832C12.3346 12.0845 12.5143 12.0245 12.6611 11.9126C12.8078 11.8008 12.9133 11.6434 12.961 11.4651C13.0086 11.2869 12.9958 11.0978 12.9244 10.9277C12.8531 10.7575 12.7273 10.6158 12.5668 10.5248H12.5834Z" fill="#00A9DE"/>
</svg>
