<svg width="16" height="16" viewBox="0 0 16 16" fill="none" xmlns="http://www.w3.org/2000/svg">
<path d="M11.3334 4.03996C10.8711 4.04027 10.4231 4.20076 10.0657 4.49412C9.70838 4.78749 9.4637 5.1956 9.37333 5.64904C9.28296 6.10247 9.35248 6.57321 9.57006 6.98116C9.78764 7.38912 10.1398 7.70908 10.5668 7.88663C10.4653 8.12992 10.2939 8.33767 10.0744 8.48362C9.85489 8.62957 9.59703 8.70718 9.33342 8.70663H6.66675C6.19678 8.7086 5.73608 8.83759 5.33342 9.07996V5.25329C5.77823 5.09603 6.15312 4.78658 6.39184 4.37964C6.63056 3.9727 6.71773 3.49447 6.63795 3.02947C6.55817 2.56447 6.31657 2.14265 5.95586 1.83856C5.59515 1.53446 5.13854 1.36768 4.66675 1.36768C4.19496 1.36768 3.73836 1.53446 3.37765 1.83856C3.01693 2.14265 2.77534 2.56447 2.69556 3.02947C2.61577 3.49447 2.70295 3.9727 2.94166 4.37964C3.18038 4.78658 3.55528 5.09603 4.00009 5.25329V10.8266C3.56074 10.9846 3.19052 11.2914 2.95359 11.6937C2.71665 12.096 2.62792 12.5685 2.70278 13.0293C2.77765 13.4902 3.01138 13.9103 3.36348 14.2169C3.71558 14.5235 4.16386 14.6973 4.63062 14.7081C5.09739 14.7189 5.55322 14.5661 5.91913 14.2761C6.28504 13.9861 6.53797 13.5772 6.63408 13.1203C6.73018 12.6634 6.66342 12.1873 6.44535 11.7745C6.22728 11.3616 5.87165 11.0381 5.44009 10.86C5.54114 10.6177 5.71144 10.4107 5.92965 10.2648C6.14787 10.1189 6.40428 10.0407 6.66675 10.04H9.33342C9.94331 10.0398 10.5347 9.83066 11.0091 9.44731C11.4834 9.06395 11.812 8.52958 11.9401 7.93329C12.3858 7.78185 12.7638 7.47803 13.0076 7.07533C13.2514 6.67262 13.3453 6.19683 13.2728 5.73169C13.2003 5.26656 12.9661 4.8419 12.6114 4.53246C12.2566 4.22301 11.8041 4.04861 11.3334 4.03996ZM4.66675 2.70663C4.79861 2.70663 4.9275 2.74573 5.03713 2.81898C5.14677 2.89224 5.23221 2.99635 5.28267 3.11817C5.33313 3.23999 5.34633 3.37403 5.32061 3.50335C5.29489 3.63267 5.23139 3.75146 5.13816 3.8447C5.04492 3.93793 4.92613 4.00143 4.79681 4.02715C4.66749 4.05287 4.53345 4.03967 4.41163 3.98921C4.28981 3.93876 4.18569 3.85331 4.11244 3.74367C4.03919 3.63404 4.00009 3.50515 4.00009 3.37329C4.00009 3.19648 4.07032 3.02691 4.19535 2.90189C4.32037 2.77687 4.48994 2.70663 4.66675 2.70663ZM4.66675 13.3733C4.5349 13.3733 4.40601 13.3342 4.29637 13.2609C4.18674 13.1877 4.10129 13.0836 4.05083 12.9618C4.00037 12.8399 3.98717 12.7059 4.0129 12.5766C4.03862 12.4472 4.10211 12.3285 4.19535 12.2352C4.28858 12.142 4.40737 12.0785 4.53669 12.0528C4.66601 12.027 4.80006 12.0402 4.92187 12.0907C5.04369 12.1412 5.14781 12.2266 5.22107 12.3362C5.29432 12.4459 5.33342 12.5748 5.33342 12.7066C5.33342 12.8834 5.26318 13.053 5.13816 13.178C5.01313 13.3031 4.84356 13.3733 4.66675 13.3733ZM11.3334 6.70663C11.2016 6.70663 11.0727 6.66753 10.963 6.59427C10.8534 6.52102 10.768 6.4169 10.7175 6.29508C10.667 6.17327 10.6538 6.03922 10.6796 5.9099C10.7053 5.78058 10.7688 5.66179 10.862 5.56856C10.9552 5.47532 11.074 5.41183 11.2034 5.3861C11.3327 5.36038 11.4667 5.37358 11.5885 5.42404C11.7104 5.4745 11.8145 5.55995 11.8877 5.66958C11.961 5.77921 12.0001 5.90811 12.0001 6.03996C12.0001 6.21677 11.9298 6.38634 11.8048 6.51137C11.6798 6.63639 11.5102 6.70663 11.3334 6.70663Z" fill="#00A9DE"/>
</svg>
