<svg width="18" height="18" viewBox="0 0 18 18" fill="none" xmlns="http://www.w3.org/2000/svg">
<path d="M6.00014 8.25C5.85181 8.25 5.7068 8.29399 5.58347 8.3764C5.46013 8.45881 5.364 8.57594 5.30723 8.71299C5.25047 8.85003 5.23562 9.00083 5.26455 9.14632C5.29349 9.2918 5.36492 9.42544 5.46981 9.53033C5.5747 9.63522 5.70834 9.70665 5.85383 9.73559C5.99931 9.76453 6.15011 9.74968 6.28716 9.69291C6.4242 9.63614 6.54133 9.54002 6.62375 9.41668C6.70616 9.29334 6.75014 9.14834 6.75014 9C6.75014 8.80109 6.67113 8.61032 6.53047 8.46967C6.38982 8.32902 6.19906 8.25 6.00014 8.25ZM9.00014 8.25C8.85181 8.25 8.7068 8.29399 8.58347 8.3764C8.46013 8.45881 8.364 8.57594 8.30723 8.71299C8.25047 8.85003 8.23562 9.00083 8.26455 9.14632C8.29349 9.2918 8.36492 9.42544 8.46981 9.53033C8.5747 9.63522 8.70834 9.70665 8.85383 9.73559C8.99931 9.76453 9.15011 9.74968 9.28716 9.69291C9.4242 9.63614 9.54134 9.54002 9.62375 9.41668C9.70616 9.29334 9.75014 9.14834 9.75014 9C9.75014 8.80109 9.67113 8.61032 9.53047 8.46967C9.38982 8.32902 9.19906 8.25 9.00014 8.25ZM12.0001 8.25C11.8518 8.25 11.7068 8.29399 11.5835 8.3764C11.4601 8.45881 11.364 8.57594 11.3072 8.71299C11.2505 8.85003 11.2356 9.00083 11.2646 9.14632C11.2935 9.2918 11.3649 9.42544 11.4698 9.53033C11.5747 9.63522 11.7083 9.70665 11.8538 9.73559C11.9993 9.76453 12.1501 9.74968 12.2872 9.69291C12.4242 9.63614 12.5413 9.54002 12.6237 9.41668C12.7062 9.29334 12.7501 9.14834 12.7501 9C12.7501 8.80109 12.6711 8.61032 12.5305 8.46967C12.3898 8.32902 12.1991 8.25 12.0001 8.25ZM9.00014 1.5C8.01523 1.5 7.03996 1.69399 6.13002 2.0709C5.22008 2.44781 4.39328 3.00026 3.69684 3.6967C2.29032 5.10322 1.50014 7.01088 1.50014 9C1.49359 10.7319 2.09324 12.4114 3.19514 13.7475L1.69514 15.2475C1.59108 15.353 1.52058 15.4869 1.49255 15.6324C1.46452 15.7779 1.48021 15.9284 1.53764 16.065C1.59994 16.1999 1.70092 16.3133 1.82778 16.3908C1.95464 16.4682 2.10164 16.5063 2.25014 16.5H9.00014C10.9893 16.5 12.8969 15.7098 14.3034 14.3033C15.71 12.8968 16.5001 10.9891 16.5001 9C16.5001 7.01088 15.71 5.10322 14.3034 3.6967C12.8969 2.29018 10.9893 1.5 9.00014 1.5ZM9.00014 15H4.05764L4.75514 14.3025C4.82601 14.233 4.88239 14.1502 4.92101 14.0588C4.95963 13.9674 4.97973 13.8692 4.98014 13.77C4.97733 13.5722 4.89645 13.3835 4.75514 13.245C3.77308 12.264 3.16152 10.9729 3.02466 9.59159C2.8878 8.21029 3.2341 6.82425 4.00456 5.66964C4.77503 4.51503 5.92199 3.66327 7.25003 3.25948C8.57807 2.85569 10.005 2.92485 11.2878 3.45519C12.5706 3.98552 13.6298 4.94421 14.285 6.16792C14.9402 7.39163 15.1508 8.80466 14.881 10.1663C14.6112 11.5279 13.8776 12.7538 12.8053 13.6352C11.733 14.5166 10.3882 14.9989 9.00014 15Z" fill="#959595"/>
</svg>
