<svg width="16" height="16" viewBox="0 0 16 16" fill="none" xmlns="http://www.w3.org/2000/svg">
<path d="M5.33324 7.3335C5.20139 7.3335 5.0725 7.3726 4.96286 7.44585C4.85323 7.5191 4.76778 7.62322 4.71732 7.74504C4.66687 7.86686 4.65366 8.0009 4.67939 8.13022C4.70511 8.25954 4.7686 8.37833 4.86184 8.47157C4.95507 8.5648 5.07386 8.6283 5.20318 8.65402C5.3325 8.67974 5.46655 8.66654 5.58837 8.61608C5.71018 8.56562 5.8143 8.48018 5.88756 8.37054C5.96081 8.26091 5.99991 8.13202 5.99991 8.00016C5.99991 7.82335 5.92967 7.65378 5.80465 7.52876C5.67962 7.40373 5.51006 7.3335 5.33324 7.3335ZM7.99991 7.3335C7.86806 7.3335 7.73916 7.3726 7.62953 7.44585C7.5199 7.5191 7.43445 7.62322 7.38399 7.74504C7.33353 7.86686 7.32033 8.0009 7.34605 8.13022C7.37178 8.25954 7.43527 8.37833 7.52851 8.47157C7.62174 8.5648 7.74053 8.6283 7.86985 8.65402C7.99917 8.67974 8.13322 8.66654 8.25503 8.61608C8.37685 8.56562 8.48097 8.48018 8.55422 8.37054C8.62748 8.26091 8.66658 8.13202 8.66658 8.00016C8.66658 7.82335 8.59634 7.65378 8.47132 7.52876C8.34629 7.40373 8.17672 7.3335 7.99991 7.3335ZM10.6666 7.3335C10.5347 7.3335 10.4058 7.3726 10.2962 7.44585C10.1866 7.5191 10.1011 7.62322 10.0507 7.74504C10.0002 7.86686 9.987 8.0009 10.0127 8.13022C10.0384 8.25954 10.1019 8.37833 10.1952 8.47157C10.2884 8.5648 10.4072 8.6283 10.5365 8.65402C10.6658 8.67974 10.7999 8.66654 10.9217 8.61608C11.0435 8.56562 11.1476 8.48018 11.2209 8.37054C11.2941 8.26091 11.3332 8.13202 11.3332 8.00016C11.3332 7.82335 11.263 7.65378 11.138 7.52876C11.013 7.40373 10.8434 7.3335 10.6666 7.3335ZM7.99991 1.3335C7.12443 1.3335 6.25752 1.50593 5.44869 1.84097C4.63985 2.176 3.90492 2.66706 3.28587 3.28612C2.03562 4.53636 1.33324 6.23205 1.33324 8.00016C1.32742 9.53959 1.86044 11.0325 2.83991 12.2202L1.50658 13.5535C1.41407 13.6472 1.35141 13.7663 1.32649 13.8956C1.30158 14.0249 1.31552 14.1588 1.36658 14.2802C1.42195 14.4001 1.51171 14.5009 1.62448 14.5698C1.73724 14.6386 1.86791 14.6724 1.99991 14.6668H7.99991C9.76802 14.6668 11.4637 13.9645 12.714 12.7142C13.9642 11.464 14.6666 9.76827 14.6666 8.00016C14.6666 6.23205 13.9642 4.53636 12.714 3.28612C11.4637 2.03588 9.76802 1.3335 7.99991 1.3335ZM7.99991 13.3335H3.60658L4.22658 12.7135C4.28957 12.6518 4.33968 12.5781 4.37401 12.4969C4.40834 12.4156 4.42621 12.3284 4.42658 12.2402C4.42407 12.0643 4.35219 11.8966 4.22658 11.7735C3.35363 10.9015 2.81003 9.75386 2.68837 8.52603C2.56672 7.2982 2.87454 6.06617 3.5594 5.03984C4.24425 4.01352 5.26377 3.2564 6.44425 2.89748C7.62474 2.53855 8.89315 2.60003 10.0334 3.07144C11.1736 3.54284 12.1151 4.39501 12.6975 5.48276C13.2799 6.5705 13.4672 7.82653 13.2273 9.03683C12.9875 10.2471 12.3354 11.3369 11.3823 12.1203C10.4291 12.9038 9.23375 13.3325 7.99991 13.3335Z" fill="#A7A7A7"/>
</svg>
