<svg width="16" height="16" viewBox="0 0 16 16" fill="none" xmlns="http://www.w3.org/2000/svg">
<path d="M13.3332 5.96016C13.3262 5.89892 13.3128 5.83858 13.2932 5.78016V5.72016C13.2611 5.65162 13.2184 5.58861 13.1665 5.5335L9.1665 1.5335C9.11139 1.48164 9.04838 1.43888 8.97984 1.40683H8.91317C8.84835 1.37216 8.77868 1.34744 8.7065 1.3335H4.6665C4.13607 1.3335 3.62736 1.54421 3.25229 1.91928C2.87722 2.29436 2.6665 2.80306 2.6665 3.3335V12.6668C2.6665 13.1973 2.87722 13.706 3.25229 14.081C3.62736 14.4561 4.13607 14.6668 4.6665 14.6668H11.3332C11.8636 14.6668 12.3723 14.4561 12.7474 14.081C13.1225 13.706 13.3332 13.1973 13.3332 12.6668V6.00016C13.3332 6.00016 13.3332 6.00016 13.3332 5.96016ZM9.33317 3.60683L11.0598 5.3335H9.99984C9.82303 5.3335 9.65346 5.26326 9.52843 5.13823C9.40341 5.01321 9.33317 4.84364 9.33317 4.66683V3.60683ZM11.9998 12.6668C11.9998 12.8436 11.9296 13.0132 11.8046 13.1382C11.6796 13.2633 11.51 13.3335 11.3332 13.3335H4.6665C4.48969 13.3335 4.32012 13.2633 4.1951 13.1382C4.07008 13.0132 3.99984 12.8436 3.99984 12.6668V3.3335C3.99984 3.15669 4.07008 2.98712 4.1951 2.86209C4.32012 2.73707 4.48969 2.66683 4.6665 2.66683H7.99984V4.66683C7.99984 5.19726 8.21055 5.70597 8.58562 6.08104C8.9607 6.45612 9.4694 6.66683 9.99984 6.66683H11.9998V12.6668ZM8.85984 9.52683L8.6665 9.72683V8.00016C8.6665 7.82335 8.59627 7.65378 8.47124 7.52876C8.34622 7.40373 8.17665 7.3335 7.99984 7.3335C7.82303 7.3335 7.65346 7.40373 7.52843 7.52876C7.40341 7.65378 7.33317 7.82335 7.33317 8.00016V9.72683L7.13984 9.52683C7.0143 9.40129 6.84404 9.33077 6.6665 9.33077C6.48897 9.33077 6.31871 9.40129 6.19317 9.52683C6.06763 9.65237 5.99711 9.82263 5.99711 10.0002C5.99711 10.1777 6.06763 10.348 6.19317 10.4735L7.5265 11.8068C7.58991 11.8675 7.66467 11.9151 7.7465 11.9468C7.8263 11.9821 7.91259 12.0003 7.99984 12.0003C8.08708 12.0003 8.17337 11.9821 8.25317 11.9468C8.335 11.9151 8.40977 11.8675 8.47317 11.8068L9.8065 10.4735C9.93204 10.348 10.0026 10.1777 10.0026 10.0002C10.0026 9.82263 9.93204 9.65237 9.8065 9.52683C9.68097 9.40129 9.5107 9.33077 9.33317 9.33077C9.15564 9.33077 8.98537 9.40129 8.85984 9.52683Z" fill="#005AC4"/>
</svg>
