<svg width="20" height="20" viewBox="0 0 20 20" fill="none" xmlns="http://www.w3.org/2000/svg">
<path d="M15.8332 10.8332C15.6122 10.8332 15.4002 10.921 15.2439 11.0773C15.0876 11.2336 14.9998 11.4456 14.9998 11.6666V11.9832L13.7665 10.7499C13.331 10.3179 12.7424 10.0754 12.129 10.0754C11.5156 10.0754 10.927 10.3179 10.4915 10.7499L9.90817 11.3332L7.8415 9.26658C7.39994 8.84625 6.81364 8.61182 6.204 8.61182C5.59437 8.61182 5.00807 8.84625 4.5665 9.26658L3.33317 10.4999V5.83325C3.33317 5.61223 3.42097 5.40027 3.57725 5.24399C3.73353 5.08771 3.94549 4.99991 4.1665 4.99991H9.99984C10.2209 4.99991 10.4328 4.91212 10.5891 4.75584C10.7454 4.59956 10.8332 4.38759 10.8332 4.16658C10.8332 3.94557 10.7454 3.73361 10.5891 3.57732C10.4328 3.42104 10.2209 3.33325 9.99984 3.33325H4.1665C3.50346 3.33325 2.86758 3.59664 2.39874 4.06548C1.9299 4.53432 1.6665 5.17021 1.6665 5.83325V15.8332C1.6665 16.4963 1.9299 17.1322 2.39874 17.601C2.86758 18.0699 3.50346 18.3332 4.1665 18.3332H14.1665C14.8295 18.3332 15.4654 18.0699 15.9343 17.601C16.4031 17.1322 16.6665 16.4963 16.6665 15.8332V11.6666C16.6665 11.4456 16.5787 11.2336 16.4224 11.0773C16.2661 10.921 16.0542 10.8332 15.8332 10.8332ZM4.1665 16.6666C3.94549 16.6666 3.73353 16.5788 3.57725 16.4225C3.42097 16.2662 3.33317 16.0543 3.33317 15.8332V12.8582L5.74984 10.4416C5.87226 10.3249 6.03489 10.2598 6.204 10.2598C6.37312 10.2598 6.53574 10.3249 6.65817 10.4416L9.29984 13.0832L12.8832 16.6666H4.1665ZM14.9998 15.8332C14.9986 15.9928 14.946 16.1477 14.8498 16.2749L11.0915 12.4999L11.6748 11.9166C11.7346 11.8556 11.8059 11.8072 11.8846 11.7741C11.9633 11.741 12.0478 11.724 12.1332 11.724C12.2185 11.724 12.303 11.741 12.3817 11.7741C12.4604 11.8072 12.5318 11.8556 12.5915 11.9166L14.9998 14.3416V15.8332ZM18.9248 3.57491L16.4248 1.07491C16.3456 0.999046 16.2521 0.939576 16.1498 0.899914C15.947 0.816565 15.7194 0.816565 15.5165 0.899914C15.4142 0.939576 15.3208 0.999046 15.2415 1.07491L12.7415 3.57491C12.6638 3.65261 12.6022 3.74485 12.5601 3.84637C12.5181 3.94789 12.4964 4.0567 12.4964 4.16658C12.4964 4.3885 12.5846 4.60133 12.7415 4.75825C12.8984 4.91517 13.1113 5.00332 13.3332 5.00332C13.5551 5.00332 13.7679 4.91517 13.9248 4.75825L14.9998 3.67491V8.33325C14.9998 8.55426 15.0876 8.76622 15.2439 8.9225C15.4002 9.07878 15.6122 9.16658 15.8332 9.16658C16.0542 9.16658 16.2661 9.07878 16.4224 8.9225C16.5787 8.76622 16.6665 8.55426 16.6665 8.33325V3.67491L17.7415 4.75825C17.819 4.83635 17.9111 4.89835 18.0127 4.94066C18.1142 4.98296 18.2232 5.00475 18.3332 5.00475C18.4432 5.00475 18.5521 4.98296 18.6537 4.94066C18.7552 4.89835 18.8474 4.83635 18.9248 4.75825C19.0029 4.68078 19.0649 4.58861 19.1072 4.48706C19.1496 4.38551 19.1713 4.27659 19.1713 4.16658C19.1713 4.05657 19.1496 3.94765 19.1072 3.8461C19.0649 3.74455 19.0029 3.65238 18.9248 3.57491Z" fill="#959595"/>
</svg>
