<svg width="18" height="18" viewBox="0 0 18 18" fill="none" xmlns="http://www.w3.org/2000/svg">
<path d="M9.08238 11.5423L6.17238 14.4523C5.82006 14.7924 5.34952 14.9824 4.85988 14.9824C4.37023 14.9824 3.8997 14.7924 3.54738 14.4523C3.37458 14.2802 3.23747 14.0757 3.14392 13.8504C3.05036 13.6252 3.0022 13.3837 3.0022 13.1398C3.0022 12.8959 3.05036 12.6544 3.14392 12.4292C3.23747 12.204 3.37458 11.9994 3.54738 11.8273L6.45738 8.91733C6.59861 8.7761 6.67795 8.58455 6.67795 8.38483C6.67795 8.1851 6.59861 7.99355 6.45738 7.85233C6.31615 7.7111 6.1246 7.63176 5.92488 7.63176C5.72515 7.63176 5.53361 7.7111 5.39238 7.85233L2.48238 10.7698C1.89614 11.4079 1.57909 12.2478 1.59743 13.1141C1.61577 13.9805 1.96809 14.8062 2.5808 15.4189C3.19352 16.0316 4.01925 16.3839 4.88556 16.4023C5.75188 16.4206 6.59178 16.1036 7.22988 15.5173L10.1474 12.6073C10.2886 12.4661 10.3679 12.2746 10.3679 12.0748C10.3679 11.8751 10.2886 11.6836 10.1474 11.5423C10.0062 11.4011 9.8146 11.3218 9.61488 11.3218C9.41515 11.3218 9.22361 11.4011 9.08238 11.5423ZM15.5174 2.48233C14.8865 1.85533 14.0331 1.50342 13.1436 1.50342C12.2541 1.50342 11.4008 1.85533 10.7699 2.48233L7.85238 5.39233C7.78245 5.46226 7.72698 5.54527 7.68913 5.63664C7.65129 5.72801 7.63181 5.82593 7.63181 5.92483C7.63181 6.02372 7.65129 6.12165 7.68913 6.21301C7.72698 6.30438 7.78245 6.3874 7.85238 6.45733C7.92231 6.52726 8.00532 6.58273 8.09669 6.62057C8.18806 6.65842 8.28598 6.6779 8.38488 6.6779C8.48377 6.6779 8.5817 6.65842 8.67307 6.62057C8.76443 6.58273 8.84745 6.52726 8.91738 6.45733L11.8274 3.54733C12.1797 3.2073 12.6502 3.01727 13.1399 3.01727C13.6295 3.01727 14.1001 3.2073 14.4524 3.54733C14.6252 3.71944 14.7623 3.92398 14.8558 4.14922C14.9494 4.37445 14.9976 4.61594 14.9976 4.85983C14.9976 5.10372 14.9494 5.34521 14.8558 5.57044C14.7623 5.79567 14.6252 6.00021 14.4524 6.17233L11.5424 9.08233C11.4721 9.15205 11.4163 9.235 11.3782 9.32639C11.3401 9.41779 11.3205 9.51582 11.3205 9.61483C11.3205 9.71384 11.3401 9.81186 11.3782 9.90326C11.4163 9.99465 11.4721 10.0776 11.5424 10.1473C11.6121 10.2176 11.6951 10.2734 11.7864 10.3115C11.8778 10.3496 11.9759 10.3692 12.0749 10.3692C12.1739 10.3692 12.2719 10.3496 12.3633 10.3115C12.4547 10.2734 12.5377 10.2176 12.6074 10.1473L15.5174 7.22983C16.1444 6.59891 16.4963 5.74556 16.4963 4.85608C16.4963 3.9666 16.1444 3.11324 15.5174 2.48233ZM6.62238 11.3773C6.69246 11.4468 6.77557 11.5018 6.86695 11.5392C6.95833 11.5765 7.05617 11.5954 7.15488 11.5948C7.25358 11.5954 7.35143 11.5765 7.44281 11.5392C7.53419 11.5018 7.6173 11.4468 7.68738 11.3773L11.3774 7.68733C11.5186 7.5461 11.5979 7.35455 11.5979 7.15483C11.5979 6.9551 11.5186 6.76355 11.3774 6.62233C11.2362 6.4811 11.0446 6.40176 10.8449 6.40176C10.6452 6.40176 10.4536 6.4811 10.3124 6.62233L6.62238 10.3123C6.55208 10.382 6.49629 10.465 6.45821 10.5564C6.42013 10.6478 6.40053 10.7458 6.40053 10.8448C6.40053 10.9438 6.42013 11.0419 6.45821 11.1333C6.49629 11.2247 6.55208 11.3076 6.62238 11.3773Z" fill="#959595"/>
</svg>
