<svg width="168" height="203" viewBox="0 0 168 203" fill="none" xmlns="http://www.w3.org/2000/svg">
<mask id="path-1-inside-1_1151_33694" fill="white">
<path fill-rule="evenodd" clip-rule="evenodd" d="M27.4142 0.586275C26.6332 -0.194773 25.3668 -0.194774 24.5858 0.586274L19.1719 6.00019H6C2.68629 6.00019 0 8.68648 0 12.0002V197C0 200.314 2.68629 203 6 203H162C165.314 203 168 200.314 168 197V12.0002C168 8.68648 165.314 6.00019 162 6.00019H32.8281L27.4142 0.586275Z"/>
</mask>
<path fill-rule="evenodd" clip-rule="evenodd" d="M27.4142 0.586275C26.6332 -0.194773 25.3668 -0.194774 24.5858 0.586274L19.1719 6.00019H6C2.68629 6.00019 0 8.68648 0 12.0002V197C0 200.314 2.68629 203 6 203H162C165.314 203 168 200.314 168 197V12.0002C168 8.68648 165.314 6.00019 162 6.00019H32.8281L27.4142 0.586275Z" fill="white"/>
<path d="M24.5858 0.586274L23.8787 -0.120833L23.8787 -0.120833L24.5858 0.586274ZM27.4142 0.586275L28.1213 -0.120831L28.1213 -0.120832L27.4142 0.586275ZM19.1719 6.00019V7.00019H19.5861L19.879 6.70729L19.1719 6.00019ZM32.8281 6.00019L32.121 6.70729L32.4139 7.00019H32.8281V6.00019ZM25.2929 1.29338C25.6834 0.902857 26.3166 0.902857 26.7071 1.29338L28.1213 -0.120832C26.9497 -1.2924 25.0503 -1.29241 23.8787 -0.120833L25.2929 1.29338ZM19.879 6.70729L25.2929 1.29338L23.8787 -0.120833L18.4648 5.29308L19.879 6.70729ZM6 7.00019H19.1719V5.00019H6V7.00019ZM1 12.0002C1 9.23876 3.23858 7.00019 6 7.00019V5.00019C2.13401 5.00019 -1 8.13419 -1 12.0002H1ZM1 197V12.0002H-1V197H1ZM6 202C3.23857 202 1 199.762 1 197H-1C-1 200.866 2.134 204 6 204V202ZM162 202H6V204H162V202ZM167 197C167 199.762 164.761 202 162 202V204C165.866 204 169 200.866 169 197H167ZM167 12.0002V197H169V12.0002H167ZM162 7.00019C164.761 7.00019 167 9.23876 167 12.0002H169C169 8.13419 165.866 5.00019 162 5.00019V7.00019ZM32.8281 7.00019H162V5.00019H32.8281V7.00019ZM26.7071 1.29338L32.121 6.70729L33.5352 5.29308L28.1213 -0.120831L26.7071 1.29338Z" fill="#EFEFEF" mask="url(#path-1-inside-1_1151_33694)"/>
</svg>
