<svg width="20" height="20" viewBox="0 0 20 20" fill="none" xmlns="http://www.w3.org/2000/svg">
<path fill-rule="evenodd" clip-rule="evenodd" d="M9.99996 0.833496C8.45287 0.833496 6.96914 1.44808 5.87517 2.54204C4.78121 3.636 4.16663 5.11973 4.16663 6.66683C4.16663 9.46071 3.56907 11.1957 3.01838 12.2053C2.74189 12.7122 2.47265 13.0447 2.28563 13.2421C2.1919 13.3411 2.11824 13.4067 2.0739 13.4436C2.05171 13.4621 2.03684 13.4735 2.03042 13.4782L2.02804 13.48C1.7293 13.6852 1.5971 14.0606 1.70239 14.4083C1.8088 14.7598 2.13274 15.0002 2.49996 15.0002H17.5C17.8672 15.0002 18.1911 14.7598 18.2975 14.4083C18.4028 14.0606 18.2706 13.6852 17.9719 13.48L17.9695 13.4782C17.9631 13.4735 17.9482 13.4621 17.926 13.4436C17.8817 13.4067 17.808 13.3411 17.7143 13.2421C17.5273 13.0447 17.258 12.7122 16.9815 12.2053C16.4309 11.1957 15.8333 9.46071 15.8333 6.66683C15.8333 5.11973 15.2187 3.636 14.1248 2.54204C13.0308 1.44808 11.5471 0.833496 9.99996 0.833496ZM15.5184 13.0034C15.5818 13.1196 15.6455 13.2296 15.7089 13.3335H4.29107C4.35447 13.2296 4.41813 13.1196 4.48154 13.0034C5.18085 11.7213 5.8333 9.70628 5.8333 6.66683C5.8333 5.56176 6.27228 4.50195 7.05369 3.72055C7.83509 2.93915 8.8949 2.50016 9.99996 2.50016C11.105 2.50016 12.1648 2.93915 12.9462 3.72055C13.7276 4.50195 14.1666 5.56176 14.1666 6.66683C14.1666 9.70628 14.8191 11.7213 15.5184 13.0034ZM9.27914 17.0821C9.04821 16.684 8.53827 16.5484 8.14017 16.7794C7.74206 17.0103 7.60654 17.5202 7.83748 17.9183C8.05724 18.2972 8.37267 18.6117 8.75219 18.8303C9.13171 19.0489 9.562 19.1639 9.99998 19.1639C10.4379 19.1639 10.8682 19.0489 11.2478 18.8303C11.6273 18.6117 11.9427 18.2972 12.1625 17.9183C12.3934 17.5202 12.2579 17.0103 11.8598 16.7794C11.4617 16.5484 10.9517 16.684 10.7208 17.0821C10.6476 17.2083 10.5424 17.3132 10.4159 17.386C10.2894 17.4589 10.146 17.4972 9.99998 17.4972C9.85398 17.4972 9.71055 17.4589 9.58405 17.386C9.45754 17.3132 9.3524 17.2083 9.27914 17.0821Z" fill="black"/>
</svg>
