<svg width="18" height="18" viewBox="0 0 18 18" fill="none" xmlns="http://www.w3.org/2000/svg">
<path fill-rule="evenodd" clip-rule="evenodd" d="M9.00006 0.75C7.60767 0.75 6.27231 1.30312 5.28775 2.28769C4.30318 3.27226 3.75006 4.60761 3.75006 6C3.75006 8.51449 3.21226 10.076 2.71664 10.9846C2.46779 11.4408 2.22548 11.7401 2.05716 11.9178C1.9728 12.0068 1.90651 12.0659 1.8666 12.0991C1.84663 12.1158 1.83324 12.126 1.82747 12.1303L1.82533 12.1319C1.55646 12.3165 1.43748 12.6544 1.53224 12.9673C1.62801 13.2837 1.91956 13.5 2.25006 13.5H15.7501C16.0806 13.5 16.3721 13.2837 16.4679 12.9673C16.5626 12.6544 16.4437 12.3165 16.1748 12.1319L16.1727 12.1303C16.1669 12.126 16.1535 12.1158 16.1335 12.0991C16.0936 12.0659 16.0273 12.0068 15.943 11.9178C15.7746 11.7401 15.5323 11.4408 15.2835 10.9846C14.7879 10.076 14.2501 8.51449 14.2501 6C14.2501 4.60761 13.6969 3.27226 12.7124 2.28769C11.7278 1.30312 10.3924 0.75 9.00006 0.75ZM14.1381 12H3.86205C3.91912 11.9065 3.97641 11.8075 4.03348 11.7029C4.66286 10.549 5.25006 8.73551 5.25006 6C5.25006 5.00544 5.64515 4.05161 6.34841 3.34835C7.05167 2.64509 8.0055 2.25 9.00006 2.25C9.99462 2.25 10.9484 2.64509 11.6517 3.34835C12.355 4.05161 12.7501 5.00544 12.7501 6C12.7501 8.73551 13.3373 10.549 13.9666 11.7029C14.0237 11.8075 14.081 11.9065 14.1381 12ZM8.35132 15.3737C8.14348 15.0154 7.68454 14.8934 7.32624 15.1013C6.96795 15.3091 6.84598 15.7681 7.05382 16.1264C7.25161 16.4673 7.5355 16.7503 7.87706 16.9471C8.21863 17.1438 8.60589 17.2474 9.00007 17.2474C9.39425 17.2474 9.78151 17.1438 10.1231 16.9471C10.4646 16.7503 10.7485 16.4673 10.9463 16.1264C11.1542 15.7681 11.0322 15.3091 10.6739 15.1013C10.3156 14.8934 9.85666 15.0154 9.64882 15.3737C9.58289 15.4874 9.48826 15.5817 9.3744 15.6473C9.26055 15.7129 9.13146 15.7474 9.00007 15.7474C8.86868 15.7474 8.73959 15.7129 8.62573 15.6473C8.51188 15.5817 8.41725 15.4874 8.35132 15.3737Z" fill="white"/>
</svg>
