<svg width="18" height="18" viewBox="0 0 18 18" fill="none" xmlns="http://www.w3.org/2000/svg">
<path d="M13.5602 9.31491L8.92524 13.9574C8.3176 14.4974 7.5266 14.7849 6.71403 14.761C5.90147 14.737 5.12874 14.4036 4.55392 13.8287C3.9791 13.2539 3.64562 12.4812 3.6217 11.6686C3.59778 10.8561 3.88523 10.0651 4.42524 9.45741L10.4252 3.45742C10.7835 3.11714 11.2587 2.92741 11.7527 2.92741C12.2468 2.92741 12.722 3.11714 13.0802 3.45742C13.4293 3.81111 13.6249 4.28802 13.6249 4.78491C13.6249 5.28181 13.4293 5.75872 13.0802 6.11241L7.90524 11.2799C7.85403 11.3351 7.79245 11.3796 7.72402 11.411C7.6556 11.4423 7.58167 11.4599 7.50645 11.4627C7.43124 11.4655 7.35621 11.4534 7.28566 11.4272C7.2151 11.401 7.1504 11.3611 7.09524 11.3099C7.04009 11.2587 6.99556 11.1971 6.9642 11.1287C6.93284 11.0603 6.91527 10.9863 6.91249 10.9111C6.9097 10.8359 6.92176 10.7609 6.94797 10.6903C6.97418 10.6198 7.01403 10.5551 7.06524 10.4999L10.9127 6.65991C11.054 6.51869 11.1333 6.32714 11.1333 6.12742C11.1333 5.92769 11.054 5.73614 10.9127 5.59491C10.7715 5.45369 10.58 5.37435 10.3802 5.37435C10.1805 5.37435 9.98897 5.45369 9.84774 5.59491L6.00024 9.44991C5.80772 9.64094 5.65492 9.86819 5.55064 10.1186C5.44636 10.3689 5.39268 10.6375 5.39268 10.9087C5.39268 11.1799 5.44636 11.4484 5.55064 11.6988C5.65492 11.9491 5.80772 12.1764 6.00024 12.3674C6.39352 12.742 6.91585 12.951 7.45899 12.951C8.00214 12.951 8.52446 12.742 8.91774 12.3674L14.0852 7.19242C14.6814 6.55263 15.006 5.70642 14.9905 4.83206C14.9751 3.95771 14.6209 3.12348 14.0025 2.50512C13.3842 1.88676 12.5499 1.53255 11.6756 1.51713C10.8012 1.5017 9.95503 1.82625 9.31524 2.42241L3.31524 8.42241C2.50614 9.31854 2.07401 10.4923 2.10889 11.6991C2.14377 12.906 2.64297 14.0528 3.50247 14.9007C4.36198 15.7486 5.5155 16.2322 6.7227 16.2507C7.92991 16.2692 9.09769 15.8211 9.98274 14.9999L14.6252 10.3649C14.6952 10.295 14.7506 10.212 14.7885 10.1206C14.8263 10.0292 14.8458 9.93131 14.8458 9.83241C14.8458 9.73352 14.8263 9.63559 14.7885 9.54423C14.7506 9.45286 14.6952 9.36984 14.6252 9.29991C14.5553 9.22999 14.4723 9.17452 14.3809 9.13667C14.2896 9.09882 14.1916 9.07935 14.0927 9.07935C13.9938 9.07935 13.8959 9.09882 13.8046 9.13667C13.7132 9.17452 13.6302 9.22999 13.5602 9.29991V9.31491Z" fill="#A7A7A7"/>
</svg>
