<svg width="17" height="16" viewBox="0 0 17 16" fill="none" xmlns="http://www.w3.org/2000/svg">
<path d="M13.1667 7.33317H9.16675V3.33317C9.16675 3.15636 9.09651 2.98679 8.97149 2.86177C8.84646 2.73674 8.67689 2.6665 8.50008 2.6665C8.32327 2.6665 8.1537 2.73674 8.02868 2.86177C7.90365 2.98679 7.83341 3.15636 7.83341 3.33317V7.33317H3.83341C3.6566 7.33317 3.48703 7.40341 3.36201 7.52843C3.23699 7.65346 3.16675 7.82303 3.16675 7.99984C3.16675 8.17665 3.23699 8.34622 3.36201 8.47124C3.48703 8.59627 3.6566 8.6665 3.83341 8.6665H7.83341V12.6665C7.83341 12.8433 7.90365 13.0129 8.02868 13.1379C8.1537 13.2629 8.32327 13.3332 8.50008 13.3332C8.67689 13.3332 8.84646 13.2629 8.97149 13.1379C9.09651 13.0129 9.16675 12.8433 9.16675 12.6665V8.6665H13.1667C13.3436 8.6665 13.5131 8.59627 13.6382 8.47124C13.7632 8.34622 13.8334 8.17665 13.8334 7.99984C13.8334 7.82303 13.7632 7.65346 13.6382 7.52843C13.5131 7.40341 13.3436 7.33317 13.1667 7.33317Z" fill="#959595"/>
</svg>
