<svg width="20" height="20" viewBox="0 0 20 20" fill="none" xmlns="http://www.w3.org/2000/svg">
<path d="M15.8333 9.16683H10.8333V4.16683C10.8333 3.94582 10.7455 3.73385 10.5893 3.57757C10.433 3.42129 10.221 3.3335 10 3.3335C9.779 3.3335 9.56703 3.42129 9.41075 3.57757C9.25447 3.73385 9.16668 3.94582 9.16668 4.16683V9.16683H4.16668C3.94566 9.16683 3.7337 9.25463 3.57742 9.41091C3.42114 9.56719 3.33334 9.77915 3.33334 10.0002C3.33334 10.2212 3.42114 10.4331 3.57742 10.5894C3.7337 10.7457 3.94566 10.8335 4.16668 10.8335H9.16668V15.8335C9.16668 16.0545 9.25447 16.2665 9.41075 16.4228C9.56703 16.579 9.779 16.6668 10 16.6668C10.221 16.6668 10.433 16.579 10.5893 16.4228C10.7455 16.2665 10.8333 16.0545 10.8333 15.8335V10.8335H15.8333C16.0544 10.8335 16.2663 10.7457 16.4226 10.5894C16.5789 10.4331 16.6667 10.2212 16.6667 10.0002C16.6667 9.77915 16.5789 9.56719 16.4226 9.41091C16.2663 9.25463 16.0544 9.16683 15.8333 9.16683Z" fill="#4877EF"/>
</svg>
