<svg width="20" height="20" viewBox="0 0 20 20" fill="none" xmlns="http://www.w3.org/2000/svg">
<path d="M15.8335 9.16195H10.8335V4.16195C10.8335 3.94093 10.7457 3.72897 10.5894 3.57269C10.4331 3.41641 10.2212 3.32861 10.0002 3.32861C9.77915 3.32861 9.56719 3.41641 9.41091 3.57269C9.25463 3.72897 9.16683 3.94093 9.16683 4.16195V9.16195H4.16683C3.94582 9.16195 3.73385 9.24974 3.57757 9.40602C3.42129 9.5623 3.3335 9.77427 3.3335 9.99528C3.3335 10.2163 3.42129 10.4283 3.57757 10.5845C3.73385 10.7408 3.94582 10.8286 4.16683 10.8286H9.16683V15.8286C9.16683 16.0496 9.25463 16.2616 9.41091 16.4179C9.56719 16.5741 9.77915 16.6619 10.0002 16.6619C10.2212 16.6619 10.4331 16.5741 10.5894 16.4179C10.7457 16.2616 10.8335 16.0496 10.8335 15.8286V10.8286H15.8335C16.0545 10.8286 16.2665 10.7408 16.4228 10.5845C16.579 10.4283 16.6668 10.2163 16.6668 9.99528C16.6668 9.77427 16.579 9.5623 16.4228 9.40602C16.2665 9.24974 16.0545 9.16195 15.8335 9.16195Z" fill="#959595"/>
</svg>
