<svg width="14" height="14" viewBox="0 0 14 14" fill="none" xmlns="http://www.w3.org/2000/svg">
<path d="M12.2501 6.12484H11.6667V5.5415C11.6667 5.38679 11.6053 5.23842 11.4959 5.12903C11.3865 5.01963 11.2381 4.95817 11.0834 4.95817C10.9287 4.95817 10.7803 5.01963 10.6709 5.12903C10.5615 5.23842 10.5001 5.38679 10.5001 5.5415V6.12484H9.91675C9.76204 6.12484 9.61367 6.1863 9.50427 6.29569C9.39487 6.40509 9.33342 6.55346 9.33342 6.70817C9.33342 6.86288 9.39487 7.01125 9.50427 7.12065C9.61367 7.23005 9.76204 7.2915 9.91675 7.2915H10.5001V7.87484C10.5001 8.02955 10.5615 8.17792 10.6709 8.28732C10.7803 8.39671 10.9287 8.45817 11.0834 8.45817C11.2381 8.45817 11.3865 8.39671 11.4959 8.28732C11.6053 8.17792 11.6667 8.02955 11.6667 7.87484V7.2915H12.2501C12.4048 7.2915 12.5532 7.23005 12.6626 7.12065C12.772 7.01125 12.8334 6.86288 12.8334 6.70817C12.8334 6.55346 12.772 6.40509 12.6626 6.29569C12.5532 6.1863 12.4048 6.12484 12.2501 6.12484ZM7.75842 7.12817C8.06967 6.85875 8.31932 6.52552 8.49043 6.1511C8.66153 5.77668 8.75009 5.36983 8.75008 4.95817C8.75008 4.18462 8.44279 3.44276 7.89581 2.89578C7.34883 2.34879 6.60696 2.0415 5.83342 2.0415C5.05987 2.0415 4.318 2.34879 3.77102 2.89578C3.22404 3.44276 2.91675 4.18462 2.91675 4.95817C2.91674 5.36983 3.0053 5.77668 3.1764 6.1511C3.34751 6.52552 3.59716 6.85875 3.90841 7.12817C3.09183 7.49794 2.39902 8.09506 1.91282 8.84816C1.42662 9.60125 1.16761 10.4784 1.16675 11.3748C1.16675 11.5295 1.22821 11.6779 1.3376 11.7873C1.447 11.8967 1.59537 11.9582 1.75008 11.9582C1.90479 11.9582 2.05316 11.8967 2.16256 11.7873C2.27196 11.6779 2.33341 11.5295 2.33341 11.3748C2.33341 10.4466 2.70216 9.55634 3.35854 8.89996C4.01492 8.24359 4.90516 7.87484 5.83342 7.87484C6.76167 7.87484 7.65191 8.24359 8.30829 8.89996C8.96467 9.55634 9.33342 10.4466 9.33342 11.3748C9.33342 11.5295 9.39487 11.6779 9.50427 11.7873C9.61367 11.8967 9.76204 11.9582 9.91675 11.9582C10.0715 11.9582 10.2198 11.8967 10.3292 11.7873C10.4386 11.6779 10.5001 11.5295 10.5001 11.3748C10.4992 10.4784 10.2402 9.60125 9.75401 8.84816C9.26781 8.09506 8.575 7.49794 7.75842 7.12817ZM5.83342 6.70817C5.4873 6.70817 5.14895 6.60554 4.86117 6.41324C4.57338 6.22095 4.34908 5.94764 4.21663 5.62787C4.08417 5.3081 4.04952 4.95623 4.11704 4.61676C4.18456 4.2773 4.35124 3.96548 4.59598 3.72073C4.84072 3.47599 5.15254 3.30932 5.49201 3.2418C5.83147 3.17427 6.18334 3.20893 6.50311 3.34138C6.82288 3.47384 7.09619 3.69814 7.28849 3.98592C7.48078 4.27371 7.58342 4.61205 7.58342 4.95817C7.58342 5.4223 7.39904 5.86742 7.07085 6.19561C6.74266 6.5238 6.29754 6.70817 5.83342 6.70817Z" fill="#A7A7A7"/>
</svg>
